<svg width="64" height="64" viewBox="0 0 64 64" fill="none" xmlns="http://www.w3.org/2000/svg">
<path d="M32 64C49.6731 64 64 49.6731 64 32C64 14.3269 49.6731 0 32 0C14.3269 0 0 14.3269 0 32C0 49.6731 14.3269 64 32 64Z" fill="#272727"/>
<path opacity="0.2" d="M20 49.53C20 50.635 19.105 51.53 18 51.53H16C14.895 51.53 14 50.635 14 49.53V38.53C14 37.425 14.895 36.53 16 36.53H18C19.105 36.53 20 37.425 20 38.53V49.53Z" fill="#231F20"/>
<path opacity="0.2" d="M50 49.53C50 50.635 49.105 51.53 48 51.53H46C44.895 51.53 44 50.635 44 49.53V38.53C44 37.425 44.895 36.53 46 36.53H48C49.105 36.53 50 37.425 50 38.53V49.53Z" fill="#231F20"/>
<path d="M20 47.53C20 48.635 19.105 49.53 18 49.53H16C14.895 49.53 14 48.635 14 47.53V36.53C14 35.425 14.895 34.53 16 34.53H18C19.105 34.53 20 35.425 20 36.53V47.53Z" fill="#DDD3EA"/>
<path d="M50 47.53C50 48.635 49.105 49.53 48 49.53H46C44.895 49.53 44 48.635 44 47.53V36.53C44 35.425 44.895 34.53 46 34.53H48C49.105 34.53 50 35.425 50 36.53V47.53Z" fill="#DDD3EA"/>
<g opacity="0.2">
<path opacity="0.2" d="M44 37.53H20C16.691 37.53 14 34.839 14 31.53L14.039 31.138L16.069 24.009C16.995 20.578 19.212 18.53 22 18.53H42C44.788 18.53 47.005 20.578 47.931 24.009L47.961 24.138L50 31.53C50 34.839 47.309 37.53 44 37.53ZM18.007 31.695C18.091 32.72 18.953 33.53 20 33.53H44C45.047 33.53 45.909 32.72 45.993 31.695L44.053 24.991C43.833 24.204 43.222 22.53 42 22.53H22C20.778 22.53 20.167 24.204 19.947 24.991L18.007 31.695Z" fill="#231F20"/>
</g>
<path d="M48.375 31.53C48.375 33.739 46.209 33.53 44 33.53H20C17.791 33.53 15.438 33.739 15.438 31.53L18 22.53C18.54 20.53 19.791 18.53 22 18.53H42C44.209 18.53 45.46 20.53 46 22.53L48.375 31.53Z" stroke="#F9B233" stroke-width="4" stroke-miterlimit="10"/>
<g opacity="0.2">
<path opacity="0.2" d="M52 41.53C52 43.739 50.209 45.53 48 45.53H16C13.791 45.53 12 43.739 12 41.53V37.53C12 35.321 13.791 33.53 16 33.53H48C50.209 33.53 52 35.321 52 37.53V41.53Z" fill="#231F20"/>
<path opacity="0.2" d="M48 47.53H16C12.691 47.53 10 44.839 10 41.53V37.53C10 34.221 12.691 31.53 16 31.53H48C51.309 31.53 54 34.221 54 37.53V41.53C54 44.839 51.309 47.53 48 47.53ZM16 35.53C14.897 35.53 14 36.427 14 37.53V41.53C14 42.633 14.897 43.53 16 43.53H48C49.103 43.53 50 42.633 50 41.53V37.53C50 36.427 49.103 35.53 48 35.53H16Z" fill="#231F20"/>
</g>
<path d="M52 39.53C52 41.739 50.209 43.53 48 43.53H16C13.791 43.53 12 41.739 12 39.53V35.53C12 33.321 13.791 31.53 16 31.53H48C50.209 31.53 52 33.321 52 35.53V39.53Z" fill="#745721" stroke="#F9B233" stroke-width="4" stroke-miterlimit="10"/>
<path d="M21 38.53C21 40.739 19.209 42.53 17 42.53C14.791 42.53 13 40.739 13 38.53C13 36.321 14.791 34.53 17 34.53C19.209 34.53 21 36.321 21 38.53Z" fill="#DDD3EA" stroke="#F9B233" stroke-width="2" stroke-miterlimit="10"/>
<path d="M51 38.53C51 40.739 49.209 42.53 47 42.53C44.791 42.53 43 40.739 43 38.53C43 36.321 44.791 34.53 47 34.53C49.209 34.53 51 36.321 51 38.53Z" fill="#DDD3EA" stroke="#F9B233" stroke-width="2" stroke-miterlimit="10"/>
<path d="M37.562 17.255C37.562 18.148 37.687 18.063 36.794 18.063H27.094C26.201 18.063 26.25 18.148 26.25 17.255L26.286 16.617C26.504 15.809 27.01 15 27.903 15H35.986C36.879 15 37.385 15.808 37.603 16.617L37.562 17.255Z" fill="#717E93" stroke="#F9B233" stroke-width="4" stroke-miterlimit="10"/>
</svg>
